HIERARCHY
ROOT Hips
{
	OFFSET	0.00	0.00	0.00
	CHANNELS 6 Xposition Yposition Zposition Zrotation Xrotation Yrotation
	JOINT LeftUpLeg
	{
		OFFSET	 0.126116	-0.014019	-0.065224
		CHANNELS 3 Zrotation Xrotation Yrotation
		JOINT LeftLeg
		{
			OFFSET	 0.000000	 0.000000	 0.569914
			CHANNELS 3 Zrotation Xrotation Yrotation
			JOINT LeftFoot
			{
				OFFSET	 0.000000	 0.000000	 0.544423
				CHANNELS 3 Zrotation Xrotation Yrotation
				JOINT LeftToeBase
				{
					OFFSET	 0.000000	 0.000000	 0.207117
					CHANNELS 3 Zrotation Xrotation Yrotation
					End Site
					{
						OFFSET	 0.000000	 0.000000	 0.207117
					}
				}
			}
		}
	}
	JOINT RightUpLeg
	{
		OFFSET	-0.124023	-0.008373	-0.065224
		CHANNELS 3 Zrotation Xrotation Yrotation
		JOINT RightLeg
		{
			OFFSET	 0.000000	 0.000000	 0.570047
			CHANNELS 3 Zrotation Xrotation Yrotation
			JOINT RightFoot
			{
				OFFSET	 0.000000	 0.000000	 0.544354
				CHANNELS 3 Zrotation Xrotation Yrotation
				JOINT RightToeBase
				{
					OFFSET	 0.000000	 0.000000	 0.207540
					CHANNELS 3 Zrotation Xrotation Yrotation
					End Site
					{
						OFFSET	 0.000000	 0.000000	 0.207540
					}
				}
			}
		}
	}
	JOINT Spine
	{
		OFFSET	 0.000184	-0.007763	 0.117403
		CHANNELS 3 Zrotation Xrotation Yrotation
		JOINT Spine1
		{
			OFFSET	 0.000000	 0.000000	 0.137269
			CHANNELS 3 Zrotation Xrotation Yrotation
			JOINT Spine2
			{
				OFFSET	 0.000000	 0.000000	 0.156879
				CHANNELS 3 Zrotation Xrotation Yrotation
				JOINT LeftShoulder
				{
					OFFSET	 0.080501	-0.002496	 0.160144
					CHANNELS 3 Zrotation Xrotation Yrotation
					JOINT LeftArm
					{
						OFFSET	 0.000000	 0.000000	 0.164363
						CHANNELS 3 Zrotation Xrotation Yrotation
						JOINT LeftForeArm
						{
							OFFSET	 0.000000	 0.000000	 0.364576
							CHANNELS 3 Zrotation Xrotation Yrotation
							JOINT LeftHand
							{
								OFFSET	 0.000000	 0.000000	 0.360812
								CHANNELS 3 Zrotation Xrotation Yrotation
								JOINT LeftHandIndex1
								{
									OFFSET	 0.000000	 0.000000	 0.086006
									CHANNELS 3 Zrotation Xrotation Yrotation
									JOINT LeftHandIndex2
									{
										OFFSET	 0.000000	 0.000000	 0.047236
										CHANNELS 3 Zrotation Xrotation Yrotation
										JOINT LeftHandIndex3
										{
											OFFSET	-0.004284	-0.000551	 0.038166
											CHANNELS 3 Zrotation Xrotation Yrotation
											End Site
											{
												OFFSET	-0.004284	-0.000551	 0.038166
											}
										}
									}
								}
							}
						}
					}
				}
				JOINT Neck
				{
					OFFSET	 0.000000	 0.000000	 0.176489
					CHANNELS 3 Zrotation Xrotation Yrotation
					JOINT Head
					{
						OFFSET	 0.000000	-0.001747	 0.077940
						CHANNELS 3 Zrotation Xrotation Yrotation
						End Site
						{
							OFFSET	 0.000000	-0.001747	 0.077940
						}
					}
				}
				JOINT RightShoulder
				{
					OFFSET	-0.080363	 0.000306	 0.159706
					CHANNELS 3 Zrotation Xrotation Yrotation
					JOINT RightArm
					{
						OFFSET	 0.000000	 0.000000	 0.164196
						CHANNELS 3 Zrotation Xrotation Yrotation
						JOINT RightForeArm
						{
							OFFSET	 0.000000	 0.000000	 0.365611
							CHANNELS 3 Zrotation Xrotation Yrotation
							JOINT RightHand
							{
								OFFSET	 0.000000	 0.000000	 0.360648
								CHANNELS 3 Zrotation Xrotation Yrotation
								JOINT RightHandIndex1
								{
									OFFSET	 0.000000	 0.000000	 0.069977
									CHANNELS 3 Zrotation Xrotation Yrotation
									JOINT RightHandIndex2
									{
										OFFSET	 0.000000	 0.000000	 0.052305
										CHANNELS 3 Zrotation Xrotation Yrotation
										JOINT RightHandIndex3
										{
											OFFSET	 0.009002	-0.000782	 0.042196
											CHANNELS 3 Zrotation Xrotation Yrotation
											End Site
											{
												OFFSET	 0.009002	-0.000782	 0.042196
											}
										}
									}
								}
							}
						}
					}
				}
			}
		}
	}
}
MOTION
Frames:    7
Frame Time: 0.03333334
-2.932751	-18.242520	 1.061834	-20.309540	 9.518409	 3.101414	 5.641602	-20.731480	 175.452600	-4.194507	-36.248740	-0.940617	-1.146927	 83.497600	-0.447787	-2.333867	 36.439290	-0.183993	-2.053508	-22.720350	-178.933700	-2.001214	-40.357440	-0.995295	-1.493398	 87.075370	 0.676486	 2.394000	 25.973410	-0.051447	-7.145152	 5.348735	-1.432444	-11.812210	 3.822815	-2.074159	-14.472240	 1.162899	-0.814967	-101.592200	 88.594730	-167.472600	 54.844910	 68.111850	-64.822110	-4.951673	-4.332203	-17.973880	 7.816764	-2.258811	-5.309990	-1.769516	-11.035670	 7.720074	-5.213516	-0.193813	 3.566525	-1.378229	 35.397820	-2.634230	 0.682345	 1.262599	 0.593779	-3.348291	 2.330595	 0.557089	 96.566740	 87.886780	 170.278300	-50.397070	 75.823840	 63.771960	-1.986011	-12.785050	 23.302090	-25.911790	-3.197526	 9.565593	-7.435797	-4.170534	-37.158850	 5.070815	-0.697434	-9.399699	-2.350882	 35.473990	 5.254307
-2.933379	-18.240820	 1.067112	-20.318710	 9.217995	 3.034644	 5.514561	-20.370090	 175.402400	-4.327019	-36.462510	-1.107056	-1.246776	 83.613810	-0.564974	-2.330227	 36.846520	-0.194104	-1.814595	-22.109120	-178.961900	-1.975663	-39.908730	-0.844178	-1.521132	 86.591130	 0.857989	 2.394607	 25.789670	-0.055295	-7.196173	 5.569326	-1.417244	-11.810810	 4.209401	-2.015024	-14.385620	 1.532567	-0.763512	-101.288400	 88.601280	-167.874000	 53.951640	 68.265590	-63.711730	-4.782876	-4.279280	-17.231530	 8.080373	-2.276557	-5.301713	-2.576060	-11.474040	 5.807245	-5.213516	-0.193813	 3.566525	-1.378229	 35.397820	-2.634230	 0.764548	 1.432515	 0.684476	-3.240437	 2.588692	 0.688271	 96.701680	 87.920010	 170.142400	-51.554650	 75.664480	 64.834040	-2.326761	-12.722940	 23.127490	-25.955950	-3.198564	 9.563691	-7.380119	-4.246627	-36.958380	 5.070815	-0.697434	-9.399699	-2.350882	 35.473990	 5.254307
-2.937086	-18.244220	 1.066581	-19.981220	 8.963400	 2.879348	 5.360905	-20.018650	 175.366700	-4.250487	-36.490980	-1.153099	-1.328537	 83.773320	-0.551101	-2.326538	 37.245850	-0.204117	-1.724599	-20.727710	-178.971300	-1.622789	-38.238600	-0.587782	-1.317568	 86.418590	 0.972337	 2.394083	 25.947870	-0.051981	-7.377644	 5.543699	-1.412866	-11.923010	 4.674041	-1.950998	-14.338280	 2.058392	-0.694975	-100.694500	 88.615490	-168.657000	 53.192000	 68.596280	-62.741850	-4.671387	-4.240652	-16.434420	 8.452420	-2.300393	-5.289678	-3.519035	-11.852450	 3.606554	-5.213516	-0.193813	 3.566525	-1.378229	 35.397820	-2.634230	 0.756393	 1.623951	 0.795004	-3.125743	 3.140837	 0.681090	 96.983580	 87.981320	 169.850200	-52.396860	 75.662230	 65.322510	-2.597843	-12.667530	 22.979710	-25.989290	-3.199348	 9.562307	-7.283494	-4.218624	-36.731710	 5.070815	-0.697434	-9.399699	-2.350882	 35.473990	 5.254307
-2.941615	-18.247450	 1.066472	-19.539940	 8.870380	 2.756846	 5.142368	-19.666760	 175.304600	-4.084576	-36.341790	-1.172646	-1.400528	 83.772540	-0.519167	-2.323267	 37.590720	-0.212829	-1.946995	-19.370670	-179.134700	-1.112360	-36.325780	-0.441078	-1.409236	 86.487210	 1.299014	 2.390530	 26.952710	-0.030777	-7.563244	 5.427688	-1.519196	-12.024150	 5.115266	-1.887030	-14.293510	 2.624623	-0.621876	-99.784250	 88.572750	-169.735400	 52.699720	 69.043610	-62.231250	-4.717308	-4.221752	-15.756420	 8.848480	-2.317334	-5.280302	-3.313510	-11.951240	 4.080379	-5.213516	-0.193813	 3.566525	-1.378229	 35.397820	-2.634230	 0.727313	 1.812924	 0.956182	-3.035937	 3.777771	 0.618418	 97.522010	 88.095760	 169.306900	-52.913240	 75.755750	 65.346070	-2.797964	-12.609890	 22.851380	-26.001060	-3.199821	 9.561995	-7.173992	-4.107015	-36.534150	 5.070815	-0.697434	-9.399699	-2.350882	 35.473990	 5.254307
-2.945513	-18.249270	 1.066685	-19.479170	 8.847694	 3.049504	 4.954803	-19.368540	 174.862700	-4.058680	-36.045090	-1.272987	-1.466294	 83.569040	-0.613207	-2.322236	 37.698510	-0.215566	-2.256764	-18.692970	-179.618900	-1.146428	-35.196450	-0.677141	-1.694067	 86.359550	 1.266775	 2.395138	 25.623270	-0.058778	-7.553839	 5.456985	-2.013161	-11.901700	 5.426115	-1.936099	-14.180520	 3.027286	-0.566852	-98.854480	 88.428900	-170.692200	 52.454750	 69.629880	-62.284110	-5.012801	-4.267582	-15.408460	 9.265765	-2.328392	-5.271624	-3.255685	-12.009610	 4.212757	-5.213516	-0.193813	 3.566525	-1.378229	 35.397820	-2.634230	 0.799115	 2.005191	 1.105320	-3.010015	 4.126748	 0.743685	 98.305760	 88.266980	 168.569500	-53.246570	 75.835690	 65.302830	-2.919590	-12.548030	 22.742690	-25.986430	-3.200253	 9.561615	-7.087793	-3.948238	-36.431250	 5.070815	-0.697434	-9.399699	-2.350882	 35.473990	 5.254307
-2.948723	-18.250760	 1.067074	-20.039290	 8.890506	 3.302733	 4.910689	-19.070920	 174.738000	-4.293079	-35.587640	-1.418107	-1.510331	 83.282180	-0.813090	-2.322954	 37.624090	-0.213673	-2.439040	-18.409740	-179.864100	-1.625313	-34.615810	-1.069115	-2.230147	 86.073550	 1.225193	 2.397737	 24.756700	-0.076808	-7.309282	 5.411230	-2.287450	-11.549140	 5.733623	-1.959546	-13.978030	 3.441685	-0.507868	-98.792010	 88.372380	-170.681900	 52.214300	 70.275180	-62.072880	-5.733088	-4.285463	-15.584720	 9.205825	-2.321600	-5.274493	-3.700120	-12.558980	 3.184322	-5.213516	-0.193813	 3.566525	-1.378229	 35.397820	-2.634230	 0.965766	 2.235185	 1.132407	-3.013964	 4.270692	 0.732786	 98.234650	 88.326970	 168.780000	-53.269900	 75.851670	 65.118900	-3.079734	-12.510340	 22.612360	-26.045850	-3.201600	 9.559467	-7.017570	-3.777695	-36.378010	 5.070815	-0.697434	-9.399699	-2.350882	 35.473990	 5.254307
-2.951170	-18.251610	 1.067590	-20.703040	 8.897860	 2.946155	 5.032454	-18.569630	 175.053200	-4.612870	-35.018830	-1.488800	-1.556348	 83.022290	-0.925916	-2.324369	 37.475640	-0.209917	-2.466694	-18.534090	-179.544500	-1.895828	-34.451020	-1.215768	-2.549993	 86.051610	 1.331025	 2.397372	 24.883840	-0.074174	-7.074129	 5.427530	-1.819675	-11.229210	 6.046812	-1.746579	-13.745980	 3.908406	-0.443048	-99.213160	 88.416000	-170.199300	 52.914400	 70.296200	-62.503840	-6.448941	-4.206565	-16.451290	 8.347035	-2.299745	-5.291332	-3.884490	-13.040150	 2.763814	-5.213516	-0.193813	 3.566525	-1.378229	 35.397820	-2.634230	 1.079540	 2.242069	 1.017235	-2.977294	 4.551470	 0.498067	 97.671800	 88.276600	 169.434400	-52.992770	 75.794530	 64.825260	-3.277642	-12.496080	 22.459850	-26.179220	-3.202911	 9.556686	-6.974574	-3.657825	-36.357010	 5.070815	-0.697434	-9.399699	-2.350882	 35.473990	 5.254307
